<?xml version="1.0" encoding="UTF-8" standalone="no"?>
<!-- Created with Inkscape (http://www.inkscape.org/) -->

<svg
   width="210mm"
   height="297mm"
   viewBox="0 0 210 297"
   version="1.1"
   id="svg1"
   inkscape:version="1.3.2 (091e20e, 2023-11-25)"
   sodipodi:docname="basic-magnetron-sputterer.svg"
   xmlns:inkscape="http://www.inkscape.org/namespaces/inkscape"
   xmlns:sodipodi="http://sodipodi.sourceforge.net/DTD/sodipodi-0.dtd"
   xmlns="http://www.w3.org/2000/svg"
   xmlns:svg="http://www.w3.org/2000/svg">
  <sodipodi:namedview
     id="namedview1"
     pagecolor="#ffffff"
     bordercolor="#666666"
     borderopacity="1.0"
     inkscape:showpageshadow="2"
     inkscape:pageopacity="0.0"
     inkscape:pagecheckerboard="0"
     inkscape:deskcolor="#d1d1d1"
     inkscape:document-units="mm"
     inkscape:zoom="3.2515805"
     inkscape:cx="378.58512"
     inkscape:cy="383.04449"
     inkscape:window-width="1440"
     inkscape:window-height="876"
     inkscape:window-x="0"
     inkscape:window-y="24"
     inkscape:window-maximized="0"
     inkscape:current-layer="layer1" />
  <defs
     id="defs1">
    <linearGradient
       id="linearGradient132">
      <stop
         style="stop-color:#000000;stop-opacity:1;"
         offset="0"
         id="stop134" />
      <stop
         style="stop-color:#000000;stop-opacity:0;"
         offset="1"
         id="stop135" />
    </linearGradient>
    <linearGradient
       id="linearGradient132-1">
      <stop
         style="stop-color:#000000;stop-opacity:1;"
         offset="0"
         id="stop132" />
      <stop
         style="stop-color:#ea60eb;stop-opacity:0;"
         offset="1"
         id="stop133" />
    </linearGradient>
    <inkscape:perspective
       sodipodi:type="inkscape:persp3d"
       inkscape:vp_x="0 : 148.5 : 1"
       inkscape:vp_y="0 : 1000 : 0"
       inkscape:vp_z="210 : 148.5 : 1"
       inkscape:persp3d-origin="105 : 99 : 1"
       id="perspective1" />
  </defs>
  <g
     inkscape:label="Layer 1"
     inkscape:groupmode="layer"
     id="layer1">
    <g
       sodipodi:type="inkscape:box3d"
       id="g1"
       style="fill:#000000;fill-opacity:0;stroke:#000000;stroke-width:1.14142"
       inkscape:perspectiveID="#perspective1"
       inkscape:corner0="0.6076921 : 0.10758705 : 0 : 0.3923079"
       inkscape:corner7="1.5490182 : 0.17189285 : 0.25 : 1">
      <path
         sodipodi:type="inkscape:box3dside"
         id="path6"
         style="fill:#e9e9ff;fill-rule:evenodd;stroke:none;stroke-linejoin:round"
         inkscape:box3dsidetype="11"
         d="m 56.269731,68.207084 0,0 v 36.565856 l 0,0 z"
         points="56.269731,68.207084 56.269731,104.77294 56.269731,104.77294 56.269731,68.207084 " />
      <path
         sodipodi:type="inkscape:box3dside"
         id="path1"
         style="fill:#353564;fill-rule:evenodd;stroke:none;stroke-linejoin:round"
         inkscape:box3dsidetype="6"
         d="m 41.19233,60.332198 v 40.152122 l 15.077401,4.28862 V 68.207084 Z"
         points="41.19233,100.48432 56.269731,104.77294 56.269731,68.207084 41.19233,60.332198 " />
      <path
         sodipodi:type="inkscape:box3dside"
         id="path2"
         style="fill:#4d4d9f;fill-rule:evenodd;stroke:none;stroke-linejoin:round"
         inkscape:box3dsidetype="5"
         d="m 41.19233,60.332198 1e-6,-10e-7 15.0774,7.874887 0,0 z"
         points="41.192331,60.332197 56.269731,68.207084 56.269731,68.207084 41.19233,60.332198 " />
      <path
         sodipodi:type="inkscape:box3dside"
         id="path5"
         style="fill:#afafde;fill-rule:evenodd;stroke:none;stroke-linejoin:round"
         inkscape:box3dsidetype="13"
         d="m 41.19233,100.48432 1e-6,0 15.0774,4.28862 0,0 z"
         points="41.192331,100.48432 56.269731,104.77294 56.269731,104.77294 41.19233,100.48432 " />
      <path
         sodipodi:type="inkscape:box3dside"
         id="path4"
         style="fill:#d7d7ff;fill-rule:evenodd;stroke:none;stroke-linejoin:round"
         inkscape:box3dsidetype="14"
         d="m 41.192331,60.332197 v 40.152123 l 15.0774,4.28862 V 68.207084 Z"
         points="41.192331,100.48432 56.269731,104.77294 56.269731,68.207084 41.192331,60.332197 " />
      <path
         sodipodi:type="inkscape:box3dside"
         id="path3"
         style="fill:#8686bf;fill-rule:evenodd;stroke:none;stroke-linejoin:round"
         inkscape:box3dsidetype="3"
         d="m 41.19233,60.332198 1e-6,-10e-7 v 40.152123 l -1e-6,0 z"
         points="41.192331,60.332197 41.192331,100.48432 41.19233,100.48432 41.19233,60.332198 " />
    </g>
    <g
       id="g124"
       transform="translate(9.6831132,3.4512471)">
      <g
         id="g6"
         transform="translate(-8.4714665)">
        <rect
           style="fill:#000000;fill-opacity:0;stroke:#000000;stroke-width:0.3;stroke-dasharray:none"
           id="rect6"
           width="1.4364537"
           height="32.154434"
           x="46.074871"
           y="59.945831" />
        <rect
           style="fill:#000000;fill-opacity:0;stroke:#000000;stroke-width:0.3;stroke-dasharray:none"
           id="rect6-1"
           width="1.4364537"
           height="32.154434"
           x="44.599998"
           y="59.945831" />
      </g>
    </g>
    <rect
       style="fill:#ea921d;fill-opacity:1;stroke:#000000;stroke-width:0.3;stroke-dasharray:none"
       id="rect7"
       width="55.676758"
       height="2.347815"
       x="84.493523"
       y="104.77579" />
    <path
       d="m 89.410046,102.1395 v 2.61276 h 45.843714 v -2.61276 c -4.5086,-0.0743 -6.96864,0.68527 -11.46093,0.6995 -4.43549,0.12583 -7.93308,-0.68926 -11.46093,-0.6995 -3.49284,-0.008 -6.9487,0.6521 -11.4609,0.6995 -4.44045,0.0436 -6.961257,-0.73468 -11.460954,-0.6995 z"
       style="fill-opacity:1;stroke:#000000;stroke-width:0.3;fill:#bcbcbc"
       id="path124"
       sodipodi:nodetypes="cccccccc" />
    <path
       d="m 61.227803,93.648631 -0.0057,24.688329 H 163.4417 V 41.032636 H 61.222064 l 0.0057,24.690313 -12.338759,-0.03187 v 1.506933 H 62.717102 V 42.527637 H 161.9467 V 116.84196 H 62.717102 V 92.012505 H 48.889005 v 1.636126 z"
       style="fill-opacity:0.23809524;stroke:#000000;stroke-width:0.3;stroke-dasharray:none;fill:#717171"
       id="path124-7"
       sodipodi:nodetypes="ccccccccccccccccc" />
    <rect
       style="fill:#ea921d;fill-opacity:1;stroke:#000000;stroke-width:0.3;stroke-dasharray:none;stroke-opacity:1"
       id="rect124"
       width="77.252113"
       height="1.3774524"
       x="75.530296"
       y="46.029865" />
    <path
       d="m 84.420107,107.40928 v 6.78704 H 140.2437 v -6.78704 z"
       style="fill:#d73eeb;stroke:#000000;stroke-width:0.27171"
       id="path138" />
  </g>
</svg>
